# xmcd
#
# Track frame offsets:
#	150
#	17435
#	31454
#	51944
#	68363
#	87158
#	104970
#	120509
#	143462
#	165206
#	189064
#	210439
#	238903
#	257393
#	296808
#	311492
#
# Disc length: 4407 seconds
#
# Revision: 0
# Processed by: cddbd v1.5.2PL0 Copyright (c) Steve Scherf et al.
# Submitted via: EasyCDDAExtractor 11.0.3.1
#
DISCID=cc113510
DTITLE=Van Morrison - It's Too Late To Stop Now
DYEAR=2008
DGENRE=Blues
TTITLE0=Ain't Nothin' You Can Do
TTITLE1=Warm Love
TTITLE2=Into The Mystic
TTITLE3=These Dreams Of You
TTITLE4=I Beleive To My Soul
TTITLE5=I've Been Working
TTITLE6=Help Me
TTITLE7=Wild Children
TTITLE8=Domino
TTITLE9=I Just Want To Make Love To You
TTITLE10=Bring It On Home To Me
TTITLE11=Saint Dominic's Preview
TTITLE12=Take Your Hand Out Of My Pocket
TTITLE13=Listen To The Lion
TTITLE14=Here Comes The Night
TTITLE15=Gloria
EXTD=
EXTT0=
EXTT1=
EXTT2=
EXTT3=
EXTT4=
EXTT5=
EXTT6=
EXTT7=
EXTT8=
EXTT9=
EXTT10=
EXTT11=
EXTT12=
EXTT13=
EXTT14=
EXTT15=
PLAYORDER=
